<svg version="1.1" id="Layer_1" xmlns="http://www.w3.org/2000/svg" xmlns:xlink="http://www.w3.org/1999/xlink" x="0px" y="0px"
	 width="100%" viewBox="0 0 250 253" enable-background="new 0 0 250 253" xml:space="preserve">
<path fill="#010D73" opacity="1.000000" stroke="none" 
	d="
M173.000000,254.000000 
	C115.333336,254.000000 58.166672,254.000000 1.000008,254.000000 
	C1.000005,169.666672 1.000005,85.333351 1.000003,1.000019 
	C84.333321,1.000013 167.666641,1.000013 250.999969,1.000006 
	C250.999969,85.333313 250.999969,169.666626 250.999985,253.999969 
	C225.166672,254.000000 199.333328,254.000000 173.000000,254.000000 
M185.188156,119.688423 
	C185.427170,116.208664 185.671921,112.729294 185.903687,109.249054 
	C186.180817,105.087982 184.898605,102.256172 179.858505,102.407661 
	C179.991699,105.120712 180.227829,107.765434 180.234512,110.410736 
	C180.285843,130.735901 171.537750,146.256012 153.538910,155.528656 
	C134.935699,165.112732 116.477089,163.171249 100.156418,150.195068 
	C84.285057,137.576111 78.651428,120.427666 83.022751,100.653175 
	C89.329491,72.123474 119.682152,55.657375 147.401382,65.345375 
	C151.262283,66.694778 154.832932,66.972878 158.778290,63.902813 
	C152.651581,61.599072 146.524887,59.295330 140.091858,56.876404 
	C140.770508,52.681976 141.191071,48.012363 135.918015,45.470196 
	C132.896332,49.177940 140.819824,55.902000 132.041656,56.906826 
	C121.077194,58.161915 128.589386,49.293205 126.313637,45.370811 
	C120.862648,48.088177 120.869934,52.488987 122.014633,57.193401 
	C87.340355,64.670334 73.424576,95.019409 76.375984,117.407509 
	C80.164253,146.143692 102.183678,166.281708 130.124725,166.827332 
	C157.261871,167.357254 180.617935,147.694092 185.188156,119.688423 
M154.868240,91.461830 
	C154.705063,94.336700 156.090073,94.692245 158.196671,93.346207 
	C160.153549,92.095818 162.156982,90.816635 163.804184,89.206642 
	C166.384750,86.684372 168.459091,87.117882 171.022568,89.303070 
	C173.393906,91.324463 176.196335,92.840134 178.808914,94.578522 
	C179.249466,94.223183 179.690033,93.867844 180.130585,93.512512 
	C179.461975,90.711678 178.981995,87.848076 178.076187,85.126190 
	C176.987152,81.853706 177.372818,79.525536 180.605377,77.599342 
	C183.058884,76.137360 185.073273,73.938446 187.283051,72.067436 
	C187.184891,71.473999 187.086731,70.880562 186.988571,70.287125 
	C183.857285,69.986694 180.721039,69.404572 177.596024,69.459686 
	C173.981461,69.523445 172.264557,67.905357 171.293594,64.595520 
	C170.512085,61.931519 169.157730,59.435566 168.057541,56.865051 
	C167.558228,56.935715 167.058914,57.006374 166.559601,57.077038 
	C165.782654,58.650608 164.596954,60.151649 164.302536,61.810841 
	C163.262512,67.672081 159.960541,70.259361 154.072937,69.661652 
	C153.585922,69.612206 153.060715,69.671524 152.587463,69.803207 
	C151.079346,70.222809 149.587387,70.700447 148.089188,71.155663 
	C149.079422,72.527779 149.837585,74.179886 151.098694,75.225197 
	C157.780518,80.763657 157.823303,80.710510 155.361420,89.178162 
	C155.222397,89.656380 155.121765,90.145760 154.868240,91.461830 
M140.277115,93.427612 
	C139.512817,92.781342 138.765472,91.600105 137.981476,91.575256 
	C132.732224,91.408897 127.475151,91.488792 121.689850,91.488792 
	C121.336922,97.104286 121.012047,102.273308 120.678940,107.573341 
	C127.944946,107.573341 134.449448,107.573341 141.387680,107.573341 
	C141.037949,102.836296 140.722427,98.562576 140.277115,93.427612 
M138.020142,113.291893 
	C132.417938,113.291893 126.815750,113.291893 121.043709,113.291893 
	C121.043709,117.625023 121.043709,121.697235 121.043709,126.158630 
	C127.794312,126.158630 134.175583,126.158630 141.310593,126.158630 
	C141.310593,122.501968 141.488602,119.197319 141.200256,115.933868 
	C141.115646,114.976204 139.707504,114.135483 138.020142,113.291893 
M122.143791,215.859818 
	C123.831581,210.355942 122.705482,208.601364 116.758606,208.127945 
	C113.539772,207.871689 110.283768,208.082306 107.025269,208.082306 
	C107.025269,213.098450 107.025269,217.451950 107.025269,222.356735 
	C111.672432,221.947327 115.958244,221.796768 120.156837,221.111679 
	C122.538406,220.723083 124.708809,219.422699 122.143791,215.859818 
M101.216431,105.080238 
	C105.677841,105.877037 110.139252,106.673828 114.989105,107.540001 
	C115.397942,101.558418 115.749580,96.413651 116.101364,91.266785 
	C111.724670,90.893837 108.119484,90.586639 103.742058,90.213631 
	C102.792992,94.978104 101.868866,99.617371 101.216431,105.080238 
M123.465759,82.128044 
	C123.337669,83.336418 123.209572,84.544800 123.066574,85.893753 
	C128.616043,85.893753 133.707336,85.893753 139.936096,85.893753 
	C137.757278,79.974152 136.040024,74.520020 133.730347,69.329506 
	C132.346375,66.219292 129.681763,66.266571 128.219086,69.322334 
	C126.382835,73.158531 125.193581,77.304428 123.465759,82.128044 
M105.875351,124.713448 
	C108.945961,125.025467 112.016563,125.337486 115.494301,125.690872 
	C115.279533,121.131889 115.088661,117.080101 114.888832,112.838203 
	C109.994469,112.226967 105.439377,111.658112 100.322983,111.019150 
	C100.558228,114.371956 100.954979,117.302666 100.915970,120.227577 
	C100.876015,123.222832 102.298454,124.418533 105.875351,124.713448 
M146.569733,122.454224 
	C147.318436,123.496582 148.089203,125.442535 148.812027,125.424889 
	C151.942535,125.348442 155.093079,124.851509 158.161285,124.169754 
	C159.169678,123.945702 160.589539,122.799072 160.724564,121.908089 
	C161.255249,118.406578 161.348770,114.838806 161.628326,110.967163 
	C156.340820,111.668770 151.783615,112.273476 147.092911,112.895889 
	C146.934311,116.024315 146.792145,118.828674 146.569733,122.454224 
M140.234360,208.943237 
	C135.871292,208.552032 131.508224,208.160828 126.875168,207.745407 
	C126.875168,212.999268 126.875168,217.289246 126.875168,221.769470 
	C127.925247,221.843277 129.615372,222.233871 129.750610,221.930756 
	C131.734161,217.484863 136.216476,219.634583 139.226715,218.129471 
	C141.004089,217.240784 143.381699,215.858002 143.730026,214.303268 
	C144.050339,212.873444 142.015488,210.915985 140.234360,208.943237 
M171.511658,207.988159 
	C169.727142,207.988159 167.942642,207.988159 165.946686,207.988159 
	C165.946686,212.950668 165.946686,217.347839 165.946686,222.403519 
	C170.358307,221.924683 174.653915,222.105179 178.441101,220.804855 
	C180.713425,220.024689 183.419220,217.053589 183.637772,214.840790 
	C183.811737,213.079254 180.798431,210.526428 178.663849,209.166580 
	C177.002808,208.108398 174.515930,208.346466 171.511658,207.988159 
M188.085098,148.867477 
	C187.607391,154.407150 182.961319,154.315704 177.499527,155.170517 
	C183.005676,158.048203 184.978699,161.368134 182.789032,166.733795 
	C187.183075,162.613541 190.941071,162.974228 195.173019,166.913055 
	C192.687057,161.502106 194.996704,158.134354 199.163269,154.824738 
	C192.828690,156.191849 191.050644,151.771240 188.085098,148.867477 
M65.077942,157.579071 
	C70.105980,159.293808 65.962524,163.601242 67.746994,167.306198 
	C71.204239,161.414413 75.023132,164.066696 79.413170,166.555374 
	C76.521492,161.199371 79.289284,158.137543 83.293526,155.051895 
	C77.781883,155.292740 74.425682,153.174393 72.850861,147.655807 
	C71.856743,152.907272 68.987778,154.931198 64.407974,154.592682 
	C64.455498,155.423813 64.503021,156.254929 65.077942,157.579071 
M162.236465,210.347427 
	C161.515457,209.562790 160.827423,208.138611 160.067993,208.099472 
	C155.802887,207.879639 151.520569,207.993515 147.205017,207.993515 
	C147.205017,212.916382 147.205017,217.308685 147.205017,221.831863 
	C152.266632,221.831863 157.039566,221.831863 162.572495,221.831863 
	C161.077560,215.124313 155.150085,220.082657 152.361298,217.219849 
	C155.035080,217.070389 157.461166,216.934769 160.218674,216.780640 
	C159.451889,210.740402 153.601059,215.835678 151.737259,212.343811 
	C155.218842,211.972931 158.594116,211.613373 162.236465,210.347427 
M78.911270,64.741356 
	C76.058380,60.142784 82.096642,59.433826 82.888672,55.828136 
	C77.737228,56.592365 74.484909,54.540916 72.971504,49.047318 
	C71.786926,54.687111 68.188759,56.475948 62.867020,56.458263 
	C67.495697,59.404655 68.996513,62.939854 66.790428,68.256462 
	C71.066856,63.857193 74.939346,64.220192 79.043961,68.679420 
	C79.043961,66.786507 79.043961,66.145226 78.911270,64.741356 
M122.068077,134.239777 
	C122.517502,136.486343 122.966927,138.732895 123.439690,141.096115 
	C128.662949,141.096115 133.573441,141.096115 138.707291,141.096115 
	C139.195923,137.860260 139.623047,135.031754 140.096100,131.899170 
	C134.308167,131.899170 129.164017,131.845825 124.023773,131.963135 
	C123.340881,131.978714 122.677773,132.861282 122.068077,134.239777 
M85.193657,215.817673 
	C86.114799,220.133484 89.356422,222.162766 93.165192,221.758133 
	C96.287773,221.426407 100.223701,220.077820 101.953293,217.786621 
	C103.627335,215.569031 102.945015,211.572678 103.352852,207.854477 
	C101.256798,208.089935 99.932068,208.238754 98.981125,208.345581 
	C97.543053,212.035995 100.490334,217.597000 94.404800,217.820114 
	C87.403389,218.076782 90.940041,211.762909 89.364029,208.285095 
	C88.094543,208.285095 86.741875,208.285095 85.113792,208.285095 
	C85.113792,210.713135 85.113792,212.846252 85.193657,215.817673 
M198.967346,213.463989 
	C197.261017,215.669403 195.554672,217.874817 192.788574,221.449951 
	C200.143661,221.371536 206.525787,217.808228 212.270645,221.922516 
	C212.441818,222.045120 213.586563,220.808289 214.458801,220.046936 
	C210.996475,215.604111 207.759811,211.450882 204.203735,206.887772 
	C202.455780,209.077042 200.926956,210.991837 198.967346,213.463989 
M52.916321,220.938492 
	C56.861076,221.205475 60.805832,221.472458 64.750587,221.739441 
	C64.929726,220.962906 65.108864,220.186386 65.288010,219.409851 
	C64.133659,218.849258 62.995033,217.854156 61.821938,217.811707 
	C58.638031,217.696533 53.644398,219.262985 53.536911,215.118317 
	C53.427345,210.893433 58.429161,212.315567 61.589066,212.153473 
	C62.848545,212.088867 64.064995,211.185516 65.301041,210.663986 
	C65.114319,210.010620 64.927597,209.357254 64.740875,208.703888 
	C61.196014,208.703888 57.461948,208.022781 54.171043,208.936981 
	C51.875683,209.574615 49.113655,212.134918 48.575108,214.330627 
	C48.159782,216.023956 50.876457,218.485443 52.916321,220.938492 
M109.688789,139.961945 
	C112.216385,140.184753 114.743973,140.407547 117.634613,140.662354 
	C117.037697,137.114380 116.552567,134.230835 116.051033,131.249756 
	C111.664185,130.743027 107.609612,130.274658 103.555046,129.806305 
	C103.191216,130.185303 102.827377,130.564301 102.463547,130.943298 
	C104.609741,133.920563 106.755943,136.897812 109.688789,139.961945 
M145.026627,136.198486 
	C144.906296,137.608414 144.785965,139.018341 144.662933,140.459991 
	C155.630020,140.307617 157.224167,139.059143 158.266571,129.775894 
	C155.421341,130.135849 152.655945,130.784088 149.896744,130.758652 
	C146.508865,130.727402 145.113388,132.213257 145.026627,136.198486 
M146.149277,97.506340 
	C146.447632,100.602257 146.746002,103.698166 147.095291,107.322563 
	C151.876312,106.723518 156.380981,106.159103 161.381760,105.532516 
	C160.872437,102.654099 160.462204,100.335663 159.951614,97.450096 
	C157.198563,99.416466 155.194290,101.193420 152.892044,102.403442 
	C150.121750,103.859474 148.260376,102.894394 148.734070,99.533897 
	C149.117783,96.811890 149.962143,94.154823 150.624069,91.377151 
	C148.976883,91.377151 147.582932,91.377151 146.074432,91.377151 
	C146.074432,93.314659 146.074432,94.947624 146.149277,97.506340 
M109.015083,80.636734 
	C108.311897,81.909950 107.608704,83.183167 106.651367,84.916550 
	C110.352539,85.273933 113.569962,85.584610 116.875114,85.903755 
	C118.411034,80.335495 119.838493,75.160461 121.265945,69.985428 
	C120.901039,69.661102 120.536133,69.336777 120.171219,69.012451 
	C116.588600,72.682709 113.005981,76.352974 109.015083,80.636734 
M168.341064,122.243874 
	C175.990250,120.178139 177.485870,117.113251 175.053940,107.431625 
	C172.359024,108.565697 168.005142,109.151108 167.496536,110.872635 
	C166.451813,114.408623 167.465942,118.552917 168.341064,122.243874 
M93.633125,122.237511 
	C94.109085,122.237068 94.585037,122.236618 95.060997,122.236176 
	C94.970497,118.329994 95.728188,114.106697 94.435806,110.649849 
	C93.778145,108.890717 89.433235,108.510109 86.634628,107.461197 
	C84.920631,117.982758 85.868469,120.040253 93.633125,122.237511 
M96.109077,98.813011 
	C96.814171,95.815933 97.519257,92.818855 98.217743,89.849876 
	C91.667816,88.071327 88.322762,92.184334 87.746872,102.331047 
	C90.023872,102.935982 92.358925,103.556343 95.052757,104.272018 
	C95.424965,102.470917 95.717232,101.056618 96.109077,98.813011 
M72.772026,213.608337 
	C72.772026,211.834030 72.772026,210.059738 72.772026,208.189209 
	C70.950066,208.189209 69.695541,208.189209 68.260315,208.189209 
	C68.260315,212.790436 68.260315,217.176254 68.260315,221.711670 
	C73.333611,221.711670 78.172379,221.711670 82.989845,221.711670 
	C83.719543,216.415680 79.922791,218.446732 77.799049,218.158386 
	C75.388199,217.831070 72.046547,219.123459 72.772026,213.608337 
M128.577911,35.797432 
	C128.581970,40.255455 128.411591,44.724827 128.700317,49.164337 
	C128.782990,50.435493 130.194351,51.620239 130.996475,52.844604 
	C131.800339,51.616199 133.224457,50.423515 133.297623,49.153027 
	C133.572433,44.380676 133.573166,39.573181 133.293518,34.801308 
	C133.219772,33.542953 131.770187,32.365227 130.952393,31.150480 
	C130.163513,32.389381 129.374634,33.628281 128.577911,35.797432 
M131.350327,156.771072 
	C133.413925,153.801346 135.477524,150.831619 138.113831,147.037720 
	C132.857056,147.037720 129.131210,147.037720 123.857582,147.037720 
	C126.505966,150.848663 128.565186,153.811829 131.350327,156.771072 
M174.287766,99.954155 
	C172.492004,97.735672 171.056885,94.987389 168.797775,93.449623 
	C166.594971,91.950195 164.532440,92.947578 165.197800,96.269394 
	C165.708527,98.819107 166.285049,101.355637 167.094910,105.118004 
	C169.975769,103.387009 172.246780,102.022453 174.287766,99.954155 
M164.621674,130.084198 
	C163.832916,132.543015 163.044159,135.001816 162.211288,137.598160 
	C169.287567,136.827133 170.353500,135.741287 172.906982,126.464561 
	C169.959122,127.528717 167.433182,128.440552 164.621674,130.084198 
M96.887527,137.363068 
	C97.795006,137.469162 98.702484,137.575256 99.761513,137.699066 
	C96.735451,127.788017 96.735451,127.788017 88.158531,128.283325 
	C90.829063,131.246475 93.499596,134.209625 96.887527,137.363068 
M191.768723,209.931473 
	C190.463226,209.126068 189.157745,208.320663 187.266205,207.153702 
	C187.266205,212.936722 187.266205,217.328064 187.266205,222.094589 
	C188.896286,221.926285 190.244019,221.787125 191.782974,221.628220 
	C191.782974,217.754333 191.782974,214.301819 191.768723,209.931473 
M150.598816,85.347229 
	C153.887985,84.688255 152.807297,82.957680 151.307312,81.611671 
	C148.754501,79.320930 145.977646,77.279884 142.230789,74.282692 
	C143.326675,78.930260 144.126572,82.322540 144.956406,85.841789 
	C146.888596,85.681290 148.365936,85.558563 150.598816,85.347229 
M147.394135,146.023438 
	C141.333267,145.460175 141.790756,150.284348 140.945312,154.143631 
	C144.042969,152.316299 146.748398,150.067581 149.368820,147.723816 
	C149.442764,147.657669 148.609818,146.577606 147.394135,146.023438 
M112.217354,146.128967 
	C114.889557,149.037018 117.561760,151.945068 120.233955,154.853119 
	C119.724953,146.390167 119.724953,146.390167 112.217354,146.128967 
M103.023849,79.989853 
	C103.487564,78.956406 103.951279,77.922958 104.723343,76.202309 
	C101.373810,78.766693 98.797600,80.739029 96.055573,82.838310 
	C100.708382,85.630386 101.544083,82.823242 103.023849,79.989853 
z"/>
<path fill="#E6B9F8" opacity="1.000000" stroke="none" 
	d="
M185.136292,120.122948 
	C180.617935,147.694092 157.261871,167.357254 130.124725,166.827332 
	C102.183678,166.281708 80.164253,146.143692 76.375984,117.407509 
	C73.424576,95.019409 87.340355,64.670334 122.014633,57.193401 
	C120.869934,52.488987 120.862648,48.088177 126.313637,45.370811 
	C128.589386,49.293205 121.077194,58.161915 132.041656,56.906826 
	C140.819824,55.902000 132.896332,49.177940 135.918015,45.470196 
	C141.191071,48.012363 140.770508,52.681976 140.091858,56.876404 
	C146.524887,59.295330 152.651581,61.599072 158.778290,63.902813 
	C154.832932,66.972878 151.262283,66.694778 147.401382,65.345375 
	C119.682152,55.657375 89.329491,72.123474 83.022751,100.653175 
	C78.651428,120.427666 84.285057,137.576111 100.156418,150.195068 
	C116.477089,163.171249 134.935699,165.112732 153.538910,155.528656 
	C171.537750,146.256012 180.285843,130.735901 180.234512,110.410736 
	C180.227829,107.765434 179.991699,105.120712 179.858505,102.407661 
	C184.898605,102.256172 186.180817,105.087982 185.903687,109.249054 
	C185.671921,112.729294 185.427170,116.208664 185.136292,120.122948 
z"/>
<path fill="#EBBDFB" opacity="1.000000" stroke="none" 
	d="
M154.935745,91.045891 
	C155.121765,90.145760 155.222397,89.656380 155.361420,89.178162 
	C157.823303,80.710510 157.780518,80.763657 151.098694,75.225197 
	C149.837585,74.179886 149.079422,72.527779 148.089188,71.155663 
	C149.587387,70.700447 151.079346,70.222809 152.587463,69.803207 
	C153.060715,69.671524 153.585922,69.612206 154.072937,69.661652 
	C159.960541,70.259361 163.262512,67.672081 164.302536,61.810841 
	C164.596954,60.151649 165.782654,58.650608 166.559601,57.077038 
	C167.058914,57.006374 167.558228,56.935715 168.057541,56.865051 
	C169.157730,59.435566 170.512085,61.931519 171.293594,64.595520 
	C172.264557,67.905357 173.981461,69.523445 177.596024,69.459686 
	C180.721039,69.404572 183.857285,69.986694 186.988571,70.287125 
	C187.086731,70.880562 187.184891,71.473999 187.283051,72.067436 
	C185.073273,73.938446 183.058884,76.137360 180.605377,77.599342 
	C177.372818,79.525536 176.987152,81.853706 178.076187,85.126190 
	C178.981995,87.848076 179.461975,90.711678 180.130585,93.512512 
	C179.690033,93.867844 179.249466,94.223183 178.808914,94.578522 
	C176.196335,92.840134 173.393906,91.324463 171.022568,89.303070 
	C168.459091,87.117882 166.384750,86.684372 163.804184,89.206642 
	C162.156982,90.816635 160.153549,92.095818 158.196671,93.346207 
	C156.090073,94.692245 154.705063,94.336700 154.935745,91.045891 
z"/>
<path fill="#ECBDFB" opacity="1.000000" stroke="none" 
	d="
M140.342010,93.858231 
	C140.722427,98.562576 141.037949,102.836296 141.387680,107.573341 
	C134.449448,107.573341 127.944946,107.573341 120.678940,107.573341 
	C121.012047,102.273308 121.336922,97.104286 121.689850,91.488792 
	C127.475151,91.488792 132.732224,91.408897 137.981476,91.575256 
	C138.765472,91.600105 139.512817,92.781342 140.342010,93.858231 
z"/>
<path fill="#E5B8F8" opacity="1.000000" stroke="none" 
	d="
M138.463043,113.266525 
	C139.707504,114.135483 141.115646,114.976204 141.200256,115.933868 
	C141.488602,119.197319 141.310593,122.501968 141.310593,126.158630 
	C134.175583,126.158630 127.794312,126.158630 121.043709,126.158630 
	C121.043709,121.697235 121.043709,117.625023 121.043709,113.291893 
	C126.815750,113.291893 132.417938,113.291893 138.463043,113.266525 
z"/>
<path fill="#E7B9F8" opacity="1.000000" stroke="none" 
	d="
M122.441605,216.084229 
	C124.708809,219.422699 122.538406,220.723083 120.156837,221.111679 
	C115.958244,221.796768 111.672432,221.947327 107.025269,222.356735 
	C107.025269,217.451950 107.025269,213.098450 107.025269,208.082306 
	C110.283768,208.082306 113.539772,207.871689 116.758606,208.127945 
	C122.705482,208.601364 123.831581,210.355942 122.441605,216.084229 
z"/>
<path fill="#EBBDFB" opacity="1.000000" stroke="none" 
	d="
M101.080582,104.668442 
	C101.868866,99.617371 102.792992,94.978104 103.742058,90.213631 
	C108.119484,90.586639 111.724670,90.893837 116.101364,91.266785 
	C115.749580,96.413651 115.397942,101.558418 114.989105,107.540001 
	C110.139252,106.673828 105.677841,105.877037 101.080582,104.668442 
z"/>
<path fill="#ECBEFC" opacity="1.000000" stroke="none" 
	d="
M123.595428,81.722359 
	C125.193581,77.304428 126.382835,73.158531 128.219086,69.322334 
	C129.681763,66.266571 132.346375,66.219292 133.730347,69.329506 
	C136.040024,74.520020 137.757278,79.974152 139.936096,85.893753 
	C133.707336,85.893753 128.616043,85.893753 123.066574,85.893753 
	C123.209572,84.544800 123.337669,83.336418 123.595428,81.722359 
z"/>
<path fill="#EABCFA" opacity="1.000000" stroke="none" 
	d="
M105.464188,124.621323 
	C102.298454,124.418533 100.876015,123.222832 100.915970,120.227577 
	C100.954979,117.302666 100.558228,114.371956 100.322983,111.019150 
	C105.439377,111.658112 109.994469,112.226967 114.888832,112.838203 
	C115.088661,117.080101 115.279533,121.131889 115.494301,125.690872 
	C112.016563,125.337486 108.945961,125.025467 105.464188,124.621323 
z"/>
<path fill="#EABCFA" opacity="1.000000" stroke="none" 
	d="
M146.609863,122.043625 
	C146.792145,118.828674 146.934311,116.024315 147.092911,112.895889 
	C151.783615,112.273476 156.340820,111.668770 161.628326,110.967163 
	C161.348770,114.838806 161.255249,118.406578 160.724564,121.908089 
	C160.589539,122.799072 159.169678,123.945702 158.161285,124.169754 
	C155.093079,124.851509 151.942535,125.348442 148.812027,125.424889 
	C148.089203,125.442535 147.318436,123.496582 146.609863,122.043625 
z"/>
<path fill="#E7B9F8" opacity="1.000000" stroke="none" 
	d="
M140.626282,209.067108 
	C142.015488,210.915985 144.050339,212.873444 143.730026,214.303268 
	C143.381699,215.858002 141.004089,217.240784 139.226715,218.129471 
	C136.216476,219.634583 131.734161,217.484863 129.750610,221.930756 
	C129.615372,222.233871 127.925247,221.843277 126.875168,221.769470 
	C126.875168,217.289246 126.875168,212.999268 126.875168,207.745407 
	C131.508224,208.160828 135.871292,208.552032 140.626282,209.067108 
z"/>
<path fill="#E8BBF9" opacity="1.000000" stroke="none" 
	d="
M171.953873,207.998306 
	C174.515930,208.346466 177.002808,208.108398 178.663849,209.166580 
	C180.798431,210.526428 183.811737,213.079254 183.637772,214.840790 
	C183.419220,217.053589 180.713425,220.024689 178.441101,220.804855 
	C174.653915,222.105179 170.358307,221.924683 165.946686,222.403519 
	C165.946686,217.347839 165.946686,212.950668 165.946686,207.988159 
	C167.942642,207.988159 169.727142,207.988159 171.953873,207.998306 
M175.913559,217.812729 
	C176.945038,216.635895 177.976501,215.459076 179.007980,214.282242 
	C176.234848,213.294922 173.461716,212.307617 170.386047,211.212601 
	C170.386047,214.414459 170.386047,216.130508 170.386047,217.946304 
	C172.157608,217.946304 173.617264,217.946304 175.913559,217.812729 
z"/>
<path fill="#E2B6F6" opacity="1.000000" stroke="none" 
	d="
M188.339081,148.598846 
	C191.050644,151.771240 192.828690,156.191849 199.163269,154.824738 
	C194.996704,158.134354 192.687057,161.502106 195.173019,166.913055 
	C190.941071,162.974228 187.183075,162.613541 182.789032,166.733795 
	C184.978699,161.368134 183.005676,158.048203 177.499527,155.170517 
	C182.961319,154.315704 187.607391,154.407150 188.339081,148.598846 
z"/>
<path fill="#E2B6F6" opacity="1.000000" stroke="none" 
	d="
M64.814240,157.332565 
	C64.503021,156.254929 64.455498,155.423813 64.407974,154.592682 
	C68.987778,154.931198 71.856743,152.907272 72.850861,147.655807 
	C74.425682,153.174393 77.781883,155.292740 83.293526,155.051895 
	C79.289284,158.137543 76.521492,161.199371 79.413170,166.555374 
	C75.023132,164.066696 71.204239,161.414413 67.746994,167.306198 
	C65.962524,163.601242 70.105980,159.293808 64.814240,157.332565 
z"/>
<path fill="#EBBDFB" opacity="1.000000" stroke="none" 
	d="
M162.102936,210.800629 
	C158.594116,211.613373 155.218842,211.972931 151.737259,212.343811 
	C153.601059,215.835678 159.451889,210.740402 160.218674,216.780640 
	C157.461166,216.934769 155.035080,217.070389 152.361298,217.219849 
	C155.150085,220.082657 161.077560,215.124313 162.572495,221.831863 
	C157.039566,221.831863 152.266632,221.831863 147.205017,221.831863 
	C147.205017,217.308685 147.205017,212.916382 147.205017,207.993515 
	C151.520569,207.993515 155.802887,207.879639 160.067993,208.099472 
	C160.827423,208.138611 161.515457,209.562790 162.102936,210.800629 
z"/>
<path fill="#E7B9F8" opacity="1.000000" stroke="none" 
	d="
M78.977615,65.122650 
	C79.043961,66.145226 79.043961,66.786507 79.043961,68.679420 
	C74.939346,64.220192 71.066856,63.857193 66.790428,68.256462 
	C68.996513,62.939854 67.495697,59.404655 62.867020,56.458263 
	C68.188759,56.475948 71.786926,54.687111 72.971504,49.047318 
	C74.484909,54.540916 77.737228,56.592365 82.888672,55.828136 
	C82.096642,59.433826 76.058380,60.142784 78.977615,65.122650 
z"/>
<path fill="#E8BBF9" opacity="1.000000" stroke="none" 
	d="
M122.036789,133.791061 
	C122.677773,132.861282 123.340881,131.978714 124.023773,131.963135 
	C129.164017,131.845825 134.308167,131.899170 140.096100,131.899170 
	C139.623047,135.031754 139.195923,137.860260 138.707291,141.096115 
	C133.573441,141.096115 128.662949,141.096115 123.439690,141.096115 
	C122.966927,138.732895 122.517502,136.486343 122.036789,133.791061 
z"/>
<path fill="#E2B6F6" opacity="1.000000" stroke="none" 
	d="
M85.153725,215.398529 
	C85.113792,212.846252 85.113792,210.713135 85.113792,208.285095 
	C86.741875,208.285095 88.094543,208.285095 89.364029,208.285095 
	C90.940041,211.762909 87.403389,218.076782 94.404800,217.820114 
	C100.490334,217.597000 97.543053,212.035995 98.981125,208.345581 
	C99.932068,208.238754 101.256798,208.089935 103.352852,207.854477 
	C102.945015,211.572678 103.627335,215.569031 101.953293,217.786621 
	C100.223701,220.077820 96.287773,221.426407 93.165192,221.758133 
	C89.356422,222.162766 86.114799,220.133484 85.153725,215.398529 
z"/>
<path fill="#E4B7F7" opacity="1.000000" stroke="none" 
	d="
M199.182739,213.185303 
	C200.926956,210.991837 202.455780,209.077042 204.203735,206.887772 
	C207.759811,211.450882 210.996475,215.604111 214.458801,220.046936 
	C213.586563,220.808289 212.441818,222.045120 212.270645,221.922516 
	C206.525787,217.808228 200.143661,221.371536 192.788574,221.449951 
	C195.554672,217.874817 197.261017,215.669403 199.182739,213.185303 
z"/>
<path fill="#E2B6F6" opacity="1.000000" stroke="none" 
	d="
M52.558437,220.771942 
	C50.876457,218.485443 48.159782,216.023956 48.575108,214.330627 
	C49.113655,212.134918 51.875683,209.574615 54.171043,208.936981 
	C57.461948,208.022781 61.196014,208.703888 64.740875,208.703888 
	C64.927597,209.357254 65.114319,210.010620 65.301041,210.663986 
	C64.064995,211.185516 62.848545,212.088867 61.589066,212.153473 
	C58.429161,212.315567 53.427345,210.893433 53.536911,215.118317 
	C53.644398,219.262985 58.638031,217.696533 61.821938,217.811707 
	C62.995033,217.854156 64.133659,218.849258 65.288010,219.409851 
	C65.108864,220.186386 64.929726,220.962906 64.750587,221.739441 
	C60.805832,221.472458 56.861076,221.205475 52.558437,220.771942 
z"/>
<path fill="#E5B8F8" opacity="1.000000" stroke="none" 
	d="
M109.295464,139.918503 
	C106.755943,136.897812 104.609741,133.920563 102.463547,130.943298 
	C102.827377,130.564301 103.191216,130.185303 103.555046,129.806305 
	C107.609612,130.274658 111.664185,130.743027 116.051033,131.249756 
	C116.552567,134.230835 117.037697,137.114380 117.634613,140.662354 
	C114.743973,140.407547 112.216385,140.184753 109.295464,139.918503 
z"/>
<path fill="#E5B8F8" opacity="1.000000" stroke="none" 
	d="
M145.069763,135.801666 
	C145.113388,132.213257 146.508865,130.727402 149.896744,130.758652 
	C152.655945,130.784088 155.421341,130.135849 158.266571,129.775894 
	C157.224167,139.059143 155.630020,140.307617 144.662933,140.459991 
	C144.785965,139.018341 144.906296,137.608414 145.069763,135.801666 
z"/>
<path fill="#E0B5F5" opacity="1.000000" stroke="none" 
	d="
M146.111847,97.043465 
	C146.074432,94.947624 146.074432,93.314659 146.074432,91.377151 
	C147.582932,91.377151 148.976883,91.377151 150.624069,91.377151 
	C149.962143,94.154823 149.117783,96.811890 148.734070,99.533897 
	C148.260376,102.894394 150.121750,103.859474 152.892044,102.403442 
	C155.194290,101.193420 157.198563,99.416466 159.951614,97.450096 
	C160.462204,100.335663 160.872437,102.654099 161.381760,105.532516 
	C156.380981,106.159103 151.876312,106.723518 147.095291,107.322563 
	C146.746002,103.698166 146.447632,100.602257 146.111847,97.043465 
z"/>
<path fill="#E4B7F7" opacity="1.000000" stroke="none" 
	d="
M109.219223,80.329987 
	C113.005981,76.352974 116.588600,72.682709 120.171219,69.012451 
	C120.536133,69.336777 120.901039,69.661102 121.265945,69.985428 
	C119.838493,75.160461 118.411034,80.335495 116.875114,85.903755 
	C113.569962,85.584610 110.352539,85.273933 106.651367,84.916550 
	C107.608704,83.183167 108.311897,81.909950 109.219223,80.329987 
z"/>
<path fill="#E7B9F8" opacity="1.000000" stroke="none" 
	d="
M167.986847,122.345352 
	C167.465942,118.552917 166.451813,114.408623 167.496536,110.872635 
	C168.005142,109.151108 172.359024,108.565697 175.053940,107.431625 
	C177.485870,117.113251 175.990250,120.178139 167.986847,122.345352 
z"/>
<path fill="#E7B9F8" opacity="1.000000" stroke="none" 
	d="
M93.273193,122.152740 
	C85.868469,120.040253 84.920631,117.982758 86.634628,107.461197 
	C89.433235,108.510109 93.778145,108.890717 94.435806,110.649849 
	C95.728188,114.106697 94.970497,118.329994 95.060997,122.236176 
	C94.585037,122.236618 94.109085,122.237068 93.273193,122.152740 
z"/>
<path fill="#E6B9F8" opacity="1.000000" stroke="none" 
	d="
M96.059296,99.227661 
	C95.717232,101.056618 95.424965,102.470917 95.052757,104.272018 
	C92.358925,103.556343 90.023872,102.935982 87.746872,102.331047 
	C88.322762,92.184334 91.667816,88.071327 98.217743,89.849876 
	C97.519257,92.818855 96.814171,95.815933 96.059296,99.227661 
z"/>
<path fill="#E0B5F5" opacity="1.000000" stroke="none" 
	d="
M72.772377,214.075348 
	C72.046547,219.123459 75.388199,217.831070 77.799049,218.158386 
	C79.922791,218.446732 83.719543,216.415680 82.989845,221.711670 
	C78.172379,221.711670 73.333611,221.711670 68.260315,221.711670 
	C68.260315,217.176254 68.260315,212.790436 68.260315,208.189209 
	C69.695541,208.189209 70.950066,208.189209 72.772026,208.189209 
	C72.772026,210.059738 72.772026,211.834030 72.772377,214.075348 
z"/>
<path fill="#F0C1FE" opacity="1.000000" stroke="none" 
	d="
M128.581818,35.332306 
	C129.374634,33.628281 130.163513,32.389381 130.952393,31.150478 
	C131.770187,32.365227 133.219772,33.542953 133.293518,34.801308 
	C133.573166,39.573181 133.572433,44.380676 133.297623,49.153027 
	C133.224457,50.423515 131.800339,51.616199 130.996475,52.844604 
	C130.194351,51.620239 128.782990,50.435493 128.700317,49.164337 
	C128.411591,44.724827 128.581970,40.255455 128.581818,35.332306 
z"/>
<path fill="#EABCFA" opacity="1.000000" stroke="none" 
	d="
M130.987366,156.773041 
	C128.565186,153.811829 126.505966,150.848663 123.857582,147.037720 
	C129.131210,147.037720 132.857056,147.037720 138.113831,147.037720 
	C135.477524,150.831619 133.413925,153.801346 130.987366,156.773041 
z"/>
<path fill="#E4B7F7" opacity="1.000000" stroke="none" 
	d="
M174.402771,100.306030 
	C172.246780,102.022453 169.975769,103.387009 167.094910,105.118004 
	C166.285049,101.355637 165.708527,98.819107 165.197800,96.269394 
	C164.532440,92.947578 166.594971,91.950195 168.797775,93.449623 
	C171.056885,94.987389 172.492004,97.735672 174.402771,100.306030 
z"/>
<path fill="#E0B5F5" opacity="1.000000" stroke="none" 
	d="
M164.764465,129.718292 
	C167.433182,128.440552 169.959122,127.528717 172.906982,126.464561 
	C170.353500,135.741287 169.287567,136.827133 162.211288,137.598160 
	C163.044159,135.001816 163.832916,132.543015 164.764465,129.718292 
z"/>
<path fill="#E0B5F5" opacity="1.000000" stroke="none" 
	d="
M96.528824,137.267914 
	C93.499596,134.209625 90.829063,131.246475 88.158531,128.283325 
	C96.735451,127.788017 96.735451,127.788017 99.761513,137.699066 
	C98.702484,137.575256 97.795006,137.469162 96.528824,137.267914 
z"/>
<path fill="#DCB1F2" opacity="1.000000" stroke="none" 
	d="
M191.775848,210.390396 
	C191.782974,214.301819 191.782974,217.754333 191.782974,221.628220 
	C190.244019,221.787125 188.896286,221.926285 187.266205,222.094589 
	C187.266205,217.328064 187.266205,212.936722 187.266205,207.153702 
	C189.157745,208.320663 190.463226,209.126068 191.775848,210.390396 
z"/>
<path fill="#DCB1F2" opacity="1.000000" stroke="none" 
	d="
M150.221054,85.391541 
	C148.365936,85.558563 146.888596,85.681290 144.956406,85.841789 
	C144.126572,82.322540 143.326675,78.930260 142.230789,74.282692 
	C145.977646,77.279884 148.754501,79.320930 151.307312,81.611671 
	C152.807297,82.957680 153.887985,84.688255 150.221054,85.391541 
z"/>
<path fill="#D8AFF0" opacity="1.000000" stroke="none" 
	d="
M147.796936,145.996887 
	C148.609818,146.577606 149.442764,147.657669 149.368820,147.723816 
	C146.748398,150.067581 144.042969,152.316299 140.945312,154.143631 
	C141.790756,150.284348 141.333267,145.460175 147.796936,145.996887 
z"/>
<path fill="#D8AFF0" opacity="1.000000" stroke="none" 
	d="
M112.606232,146.033951 
	C119.724953,146.390167 119.724953,146.390167 120.233955,154.853119 
	C117.561760,151.945068 114.889557,149.037018 112.606232,146.033951 
z"/>
<path fill="#DCB1F2" opacity="1.000000" stroke="none" 
	d="
M102.869041,80.301804 
	C101.544083,82.823242 100.708382,85.630386 96.055573,82.838310 
	C98.797600,80.739029 101.373810,78.766693 104.723343,76.202309 
	C103.951279,77.922958 103.487564,78.956406 102.869041,80.301804 
z"/>
<path fill="#0D167A" opacity="1.000000" stroke="none" 
	d="
M175.495239,217.879517 
	C173.617264,217.946304 172.157608,217.946304 170.386047,217.946304 
	C170.386047,216.130508 170.386047,214.414459 170.386047,211.212601 
	C173.461716,212.307617 176.234848,213.294922 179.007980,214.282242 
	C177.976501,215.459076 176.945038,216.635895 175.495239,217.879517 
z"/>
</svg>